<?xml version="1.0" encoding="utf-8"?>
<!DOCTYPE svg PUBLIC "-//W3C//DTD SVG 1.1//EN" "http://www.w3.org/Graphics/SVG/1.1/DTD/svg11.dtd">
<svg version="1.1" id="Layer_1" xmlns="http://www.w3.org/2000/svg" xmlns:xlink="http://www.w3.org/1999/xlink" x="0px" y="0px"
	 width="300px" height="300px" viewBox="0 0 300 300" enable-background="new 0 0 300 300" xml:space="preserve">
<path fill="#F5F5F5" d="M0,0h300v98.866c-14.133-22.278-28.207-44.596-42.352-66.862c-71.76,0.012-143.52,0-215.279,0.006
	C28.219,54.282,14.133,76.588,0.012,98.882C50.051,155.185,99.967,211.594,150,267.902c30.293-34.008,60.463-68.121,90.674-102.2
	c19.77-22.283,39.592-44.525,59.326-66.837V300H0V0z"/>
<path fill="#ED3B11" d="M42.369,32.01c71.759-0.006,143.52,0.006,215.279-0.006C271.793,54.27,285.867,76.588,300,98.866l0,0
	c-19.734,22.312-39.557,44.554-59.326,66.837c-30.21,34.079-60.38,68.192-90.674,102.2C99.967,211.594,50.051,155.185,0.012,98.882
	C14.133,76.588,28.219,54.282,42.369,32.01z"/>
<path fill="#F5F5F5" d="M63.721,42.492c22.934-0.018,45.873-0.018,68.812,0c-14.508,13.178-29.074,26.297-43.612,39.445
	C80.496,68.807,72.123,55.641,63.721,42.492z"/>
<path fill="#F5F5F5" d="M168.123,42.475c22.916,0.018,45.838-0.006,68.76,0.012c-8.385,13.154-16.764,26.314-25.143,39.475
	C197.168,68.836,182.631,55.676,168.123,42.475z"/>
<path fill="#F5F5F5" d="M49.096,42.504C59.484,58.969,69.955,75.375,80.449,91.77c-20.923,0.012-41.847-0.012-62.771,0.012
	C28.137,75.346,38.584,58.904,49.096,42.504z"/>
<path fill="#F5F5F5" d="M95.602,91.764c18.135-16.429,36.299-32.83,54.41-49.295c18.094,16.471,36.275,32.836,54.387,49.283
	C168.135,91.793,131.865,91.77,95.602,91.764z"/>
<path fill="#F5F5F5" d="M250.939,42.51c10.512,16.389,20.901,32.866,31.413,49.254c-20.924,0.018-41.842,0.006-62.766,0.006
	C230.062,75.369,240.527,58.957,250.939,42.51z"/>
<path fill="#F5F5F5" d="M17.684,102.768c21.597-0.023,43.195,0,64.798-0.012c18.064,44.461,36.276,88.869,54.445,133.289
	C97.213,191.59,57.387,147.234,17.684,102.768z"/>
<path fill="#F5F5F5" d="M95.596,102.762c36.275-0.006,72.545,0,108.82-0.006c-17.607,43.207-35.268,86.396-52.91,129.586
	c-0.464,1.148-0.885,2.332-1.588,3.363c-16.635-40.417-33.029-80.929-49.641-121.359C98.695,110.49,97.102,106.641,95.596,102.762z"
	/>
<path fill="#F5F5F5" d="M217.523,102.768c21.604-0.006,43.207-0.035,64.816,0.018c-39.709,44.472-79.535,88.84-119.279,133.277
	C181.259,191.648,199.453,147.234,217.523,102.768z"/>
</svg>
