<?xml version="1.0" encoding="utf-8"?>
<!DOCTYPE svg PUBLIC "-//W3C//DTD SVG 1.1//EN" "http://www.w3.org/Graphics/SVG/1.1/DTD/svg11.dtd">
<svg version="1.1" id="Layer_1" xmlns="http://www.w3.org/2000/svg" xmlns:xlink="http://www.w3.org/1999/xlink" x="0px" y="0px"
   width="150px" height="150px" viewBox="8.842 51.378 150 150" enable-background="new 8.842 51.378 150 150" xml:space="preserve">
<path fill="#F5F5F5" d="M8.842,51.378h150v49.434c-7.066-11.14-14.104-22.299-21.176-33.432c-35.88,0.006-71.761,0-107.64,0.003
  C22.951,78.52,15.908,89.672,8.848,100.818c25.02,28.152,49.978,56.356,74.994,84.511c15.146-17.004,30.231-34.061,45.337-51.101
  c9.885-11.142,19.796-22.263,29.663-33.418v100.567h-150V51.378z"/>
<path fill="#ED3B11" d="M30.026,67.383c35.879-0.003,71.76,0.003,107.64-0.003c7.072,11.133,14.109,22.292,21.176,33.432l0,0
  c-9.867,11.155-19.778,22.276-29.663,33.418c-15.105,17.04-30.19,34.096-45.337,51.1c-25.017-28.154-49.975-56.358-74.994-84.511
  C15.908,89.672,22.951,78.52,30.026,67.383z"/>
<path fill="#F5F5F5" d="M40.702,72.624c11.467-0.009,22.937-0.009,34.406,0c-7.254,6.589-14.537,13.148-21.807,19.723
  C49.09,85.781,44.903,79.198,40.702,72.624z"/>
<path fill="#F5F5F5" d="M92.903,72.615c11.458,0.01,22.919-0.003,34.38,0.007c-4.192,6.576-8.382,13.156-12.571,19.737
  C107.426,85.796,100.157,79.216,92.903,72.615z"/>
<path fill="#F5F5F5" d="M33.39,72.63c5.194,8.232,10.43,16.436,15.677,24.633c-10.462,0.007-20.924-0.006-31.386,0.007
  C22.91,89.051,28.134,80.83,33.39,72.63z"/>
<path fill="#F5F5F5" d="M56.643,97.26c9.067-8.214,18.149-16.415,27.205-24.647c9.047,8.235,18.138,16.418,27.193,24.642
  C92.909,97.274,74.774,97.263,56.643,97.26z"/>
<path fill="#F5F5F5" d="M134.312,72.633c5.256,8.194,10.45,16.434,15.706,24.627c-10.462,0.01-20.921,0.003-31.383,0.003
  C123.873,89.062,129.105,80.856,134.312,72.633z"/>
<path fill="#F5F5F5" d="M17.684,102.762c10.799-0.011,21.598,0,32.399-0.006c9.031,22.23,18.138,44.435,27.222,66.645
  C57.448,147.173,37.535,124.995,17.684,102.762z"/>
<path fill="#F5F5F5" d="M56.64,102.759c18.138-0.003,36.272,0,54.41-0.003c-8.804,21.604-17.634,43.198-26.455,64.793
  c-0.232,0.574-0.442,1.166-0.794,1.682c-8.317-20.208-16.515-40.465-24.82-60.68C58.189,106.623,57.393,104.698,56.64,102.759z"/>
<path fill="#F5F5F5" d="M117.604,102.762c10.802-0.003,21.604-0.018,32.408,0.01c-19.854,22.235-39.768,44.42-59.64,66.638
  C99.472,147.202,108.568,124.995,117.604,102.762z"/>
</svg>